<?xml version="1.0" encoding="UTF-8"?>
<svg id="Layer_1" xmlns="http://www.w3.org/2000/svg" version="1.1" viewBox="0 0 1200 1200">
  <!-- Generator: Adobe Illustrator 29.3.1, SVG Export Plug-In . SVG Version: 2.1.0 Build 151)  -->
  <defs>
    <style>
      .st0 {
        stroke: #3965cf;
        stroke-width: 40px;
      }

      .st0, .st1 {
        fill: none;
        stroke-linecap: round;
        stroke-linejoin: round;
      }

      .st1 {
        stroke: #424242;
        stroke-width: 16px;
      }

      .st2 {
        fill: #1a1a1a;
      }
    </style>
  </defs>
  <rect class="st2" x="48.6" y="45" width="1100" height="1100" rx="86.2" ry="86.2"/>
  <path class="st1" d="M1016.2,302.5c-18.6,0-33.8-15.1-33.8-33.8s15.1-33.8,33.8-33.8,33.8,15.1,33.8,33.8-15.1,33.8-33.8,33.8M1016.2,302.5v168.8c0,31.4,0,47.1-3.8,59.8-8.6,28.8-30.7,51.3-58.9,60-12.6,3.9-28,3.9-58.8,3.9M183.8,887.5c18.6,0,33.8,15.1,33.8,33.8s-15.1,33.8-33.8,33.8-33.8-15.1-33.8-33.8,15.1-33.8,33.8-33.8M183.8,887.5v-168.8c0-31.4,0-47.1,3.9-59.8,8.7-28.8,31.2-51.3,60-60,12.8-3.9,28.5-3.9,59.9-3.9M307.5,178.8c0,18.6-15.1,33.8-33.8,33.8s-33.8-15.1-33.8-33.8,15.1-33.8,33.8-33.8,33.8,15.1,33.8,33.8M307.5,174.8h168.8c31.4,0,47.1,0,59.8,3.9,28.8,8.7,51.3,31.2,60,60,3.9,12.8,3.9,28.5,3.9,59.9M892.5,1011.2c0-18.6,15.1-33.8,33.8-33.8s33.8,15.1,33.8,33.8-15.1,33.8-33.8,33.8-33.8-15.1-33.8-33.8M892.5,1011.2h-168.8c-31.4,0-47.1,0-59.8-3.8-28.8-8.5-51.3-30.5-60-58.6-3.9-12.5-3.9-27.8-3.9-58.5"/>
  <path class="st1" d="M309.5,597.8c0-137.9,0-206.8,42.8-249.7s111.8-42.8,249.7-42.8,206.8,0,249.7,42.8,42.8,111.8,42.8,249.7,0,206.8-42.8,249.7-111.8,42.8-249.7,42.8-206.8,0-249.7-42.8-42.8-111.8-42.8-249.7"/>
  <path class="st0" d="M617.5,712.5l-51.1-203.4c-3.6-13.2-13.4-21.9-24.3-21.6-10.9-.3-20.6,8.4-24.3,21.6l-51.1,203.4M705,487.5v225M485.5,645h113.1"/>
</svg>